<svg width="256" height="256" viewBox="0 0 100 100" fill="none" xmlns="http://www.w3.org/2000/svg">
<!-- Background with standard app icon rounded corners -->
<rect width="100" height="100" rx="22" fill="#F5F5F5"/>

<g transform="translate(0, 5)"> <!-- Centering adjustment -->
  <!-- The Stem (Main Blue) -->
  <path d="M30 15 V 85 H 50 V 15 Z" fill="#007AFF"/>

  <!-- The Top half of the P's Head (Highlight Blue) -->
  <path fill-rule="evenodd" clip-rule="evenodd"
        d="M50 15
           A 35 20 0 0 1 85 35
           L 70 35
           C 67 25, 53 25, 50 35
           L 50 15 Z"
        fill="#58B0FF"/>

  <!-- The Bottom half of the P's Head (Shadow Blue) -->
  <path fill-rule="evenodd" clip-rule="evenodd"
        d="M85 35
           A 35 20 0 0 1 50 55
           L 50 35
           C 60 48, 65 48, 70 35
           L 85 35 Z"
        fill="#0056B3"/>
           
  <!-- The Blue Pin Icon (UPDATED) -->
  <path d="M62.5 42 L56.5 35 A 0 0 0 1 1 68.5 35 L62.5 42 Z" fill="#007AFF"/>
</g>
</svg>