<svg width="480" height="150" viewBox="0 0 480 150" fill="none" xmlns="http://www.w3.org/2000/svg">
  <!-- Centered group containing all content -->
  <g transform="translate(120, 0)">
    <!-- The 'P' Icon (Large and Dominant) -->
    <g transform="scale(1.0) translate(0, 0)">
      <path d="M30 15 V 85 H 50 V 15 Z" fill="#007AFF"/>
      <path fill-rule="evenodd" clip-rule="evenodd" d="M50 15 A 35 20 0 0 1 85 35 L 70 35 C 67 25, 53 25, 50 35 L 50 15 Z" fill="#58B0FF"/>
      <path fill-rule="evenodd" clip-rule="evenodd" d="M85 35 A 35 20 0 0 1 50 55 L 50 35 C 60 48, 65 48, 70 35 L 85 35 Z" fill="#0056B3"/>
      <path d="M62.5 42 L56.5 35 A 0 0 0 1 1 68.5 35 L62.5 42 Z" fill="#007AFF"/>
    </g>
    
    <!-- The 'athio' Text (Smaller) -->
    <text x="60" y="85" font-family="Montserrat, sans-serif" font-size="48" font-weight="600" fill="#2F4F4F">athio</text>

    <!-- The Slogan (Repositioned) -->
    <text x="70" y="100" font-family="Montserrat, sans-serif" font-size="16" font-weight="400" fill="#2F4F4F">Your path perfected!</text>
  </g>
</svg>